<?xml version="1.0" encoding="utf-8"?>
<!-- Generator: Adobe Illustrator 21.0.2, SVG Export Plug-In . SVG Version: 6.00 Build 0)  -->
<svg version="1.1" id="图层_1" xmlns="http://www.w3.org/2000/svg" xmlns:xlink="http://www.w3.org/1999/xlink" x="0px" y="0px"
	 viewBox="0 0 135 135" style="enable-background:new 0 0 400 140;" xml:space="preserve">
<style type="text/css">
	.st0{fill:#002030;}
	.st1{fill:url(#SVGID_1_);}
	.st2{fill:url(#SVGID_2_);}
	.st3{fill:url(#SVGID_3_);}
	.st4{fill:url(#SVGID_4_);}
	.st5{fill:#A4FEC5;}
</style>
<radialGradient id="SVGID_1_" cx="1349.5936" cy="304.9003" r="213.2227" gradientTransform="matrix(0.2758 0 0 0.2777 -318.3616 -34.6868)" gradientUnits="userSpaceOnUse">
<stop  offset="0" style="stop-color:#00FFDC"/>
<stop  offset="0.1592" style="stop-color:#00F0E0"/>
<stop  offset="0.4656" style="stop-color:#00C9EA"/>
<stop  offset="0.8846" style="stop-color:#008AFA"/>
<stop  offset="1" style="stop-color:#0077FF"/>
</radialGradient>
<path class="st1" d="M69.6,100c-16.4,0-29.8-13.5-29.8-30s13.4-30,29.8-30s29.8,13.5,29.8,30S86,100,69.6,100z M69.6,55
	c-8.2,0-14.9,6.7-14.9,15s6.7,15,14.9,15s14.9-6.7,14.9-15S77.8,55,69.6,55z"/>
<linearGradient id="SVGID_2_" gradientUnits="userSpaceOnUse" x1="34.0944" y1="43.4843" x2="64.3195" y2="134.8764">
	<stop  offset="0" style="stop-color:#ACFFCD"/>
	<stop  offset="0.3531" style="stop-color:#5CEFFF"/>
	<stop  offset="0.999" style="stop-color:#2E87FF"/>
</linearGradient>
<path class="st2" d="M94.4,116.8c-1.4-3.9-5.7-5.9-9.5-4.5c-8.5,3.1-17.4,3.5-25.6,1.5c-0.4-0.2-0.8-0.3-1.2-0.4
	c-23.8-6.4-38-31.1-31.6-55.1h0c1.1-4-1.3-8.1-5.3-9.2c-4-1.1-8.1,1.3-9.1,5.3c-3.2,12-2.5,24.1,1.2,35.1c0.1,0.4,0.2,0.7,0.3,1.1
	l0,0C24.8,121.6,59,137.7,90,126.4v0l0,0C93.8,124.9,95.8,120.6,94.4,116.8z"/>
<linearGradient id="SVGID_3_" gradientUnits="userSpaceOnUse" x1="54.1072" y1="10.2129" x2="135.357" y2="79.8524">
	<stop  offset="0.1062" style="stop-color:#2EFF43"/>
	<stop  offset="0.4761" style="stop-color:#1CF28E"/>
	<stop  offset="1" style="stop-color:#00DFFF"/>
</linearGradient>
<path class="st3" d="M127.4,55.6c0-0.4-0.1-0.8-0.2-1.1c-8.5-32-41.2-51-73-42.4c0,0,0,0,0,0c-4,1.1-6.3,5.2-5.3,9.2
	c1.1,4,5.1,6.4,9.1,5.3c9-2.4,18.1-1.9,26.2,0.9c0.2,0.1,0.4,0.2,0.6,0.2l0,0c23.2,8.5,35.2,34.3,26.7,57.7
	c-1.4,3.9,0.6,8.2,4.5,9.6c3.9,1.4,8.1-0.6,9.5-4.5l0,0C129.8,78.9,130.2,66.8,127.4,55.6z"/>
<linearGradient id="SVGID_4_" gradientUnits="userSpaceOnUse" x1="77.8488" y1="85.9951" x2="92.7483" y2="85.9951">
	<stop  offset="0" style="stop-color:#5CEFFF"/>
	<stop  offset="1" style="stop-color:#007AE7"/>
</linearGradient>
<path class="st4" d="M80,91.3c-2.9-2.9-2.9-7.7,0-10.6s7.6-2.9,10.5,0s2.9,7.7,0,10.6S82.9,94.2,80,91.3z"/>
<path class="st5" d="M40.6,27.6c3.6,3.7,3.6,9.6,0,13.3c-3.6,3.7-9.5,3.7-13.2,0s-3.6-9.6,0-13.3S37,23.9,40.6,27.6z"/>
</svg>
